<?xml version="1.0" encoding="UTF-8"?>
<svg width="14px" height="14px" viewBox="0 0 14 14" version="1.1" xmlns="http://www.w3.org/2000/svg" xmlns:xlink="http://www.w3.org/1999/xlink">
    <!-- Generator: sketchtool 52.6 (67491) - http://www.bohemiancoding.com/sketch -->
    <title>93B4AAC5-860C-4792-ABC5-DAD7DE22DD1B</title>
    <desc>Created with sketchtool.</desc>
    <g id="Local-Markets" stroke="none" stroke-width="1" fill="none" fill-rule="evenodd">
        <g id="1440_Uforia_B2B_Houston" transform="translate(-1284.000000, -29.000000)" fill="#E63E10">
            <g id="Header">
                <path d="M1294.1843,40.5252569 L1287.50382,37.1617546 C1287.14931,37.6368322 1286.5828,37.9444444 1285.94444,37.9444444 C1284.87056,37.9444444 1284,37.073887 1284,36 C1284,34.926113 1284.87056,34.0555556 1285.94444,34.0555556 C1286.5828,34.0555556 1287.14931,34.3631678 1287.50382,34.8382454 L1294.1843,31.4747431 C1294.13662,31.3061675 1294.11111,31.1282854 1294.11111,30.9444444 C1294.11111,29.8705574 1294.98167,29 1296.05556,29 C1296.57125,29 1297.06583,29.2048605 1297.43049,29.5695146 C1297.79514,29.9341687 1298,30.4287457 1298,30.9444444 C1298,32.0183315 1297.12944,32.8888889 1296.05556,32.8888889 C1295.44485,32.8888889 1294.8999,32.6073453 1294.54342,32.1669727 L1287.83572,35.5464973 C1287.87048,35.6919983 1287.88889,35.8438497 1287.88889,36 C1287.88889,36.1561503 1287.87048,36.3080017 1287.83572,36.4535027 L1294.54342,39.8330273 C1294.8999,39.3926547 1295.44485,39.1111111 1296.05556,39.1111111 C1297.12944,39.1111111 1298,39.9816685 1298,41.0555556 C1298,42.1294426 1297.12944,43 1296.05556,43 C1294.98167,43 1294.11111,42.1294426 1294.11111,41.0555556 C1294.11111,40.8717146 1294.13662,40.6938325 1294.1843,40.5252569 Z" id="Combined-Shape"></path>
            </g>
        </g>
    </g>
</svg>