<?xml version="1.0" encoding="UTF-8"?>
<svg width="93px" height="40px" viewBox="0 0 93 40" version="1.1" xmlns="http://www.w3.org/2000/svg" xmlns:xlink="http://www.w3.org/1999/xlink">
    <!-- Generator: sketchtool 52.6 (67491) - http://www.bohemiancoding.com/sketch -->
    <title>3C7DA165-0842-4506-B8A1-854325DB2FA6</title>
    <desc>Created with sketchtool.</desc>
    <defs>
        <polygon id="path-1" points="0 39.5889531 92.4238921 39.5889531 92.4238921 0.141939627 0 0.141939627"></polygon>
    </defs>
    <g id="Local-Markets" stroke="none" stroke-width="1" fill="none" fill-rule="evenodd">
        <g id="1440_Uforia_B2B_Phoenix" transform="translate(-140.000000, -811.000000)">
            <g id="Footer" transform="translate(0.000000, 791.000000)">
                <g id="Group-37" transform="translate(140.000000, 20.000000)">
                    <polygon id="Fill-1" fill="#FFFFFF" points="48.4629416 0.642774566 48.4629416 2.20667951 46.0525369 2.20667951 46.0525369 9.76351959 44.2933847 9.76351959 44.2933847 2.20667951 41.8829801 2.20667951 41.8829801 0.642774566"></polygon>
                    <polygon id="Fill-2" fill="#FFFFFF" points="55.3553629 5.65921644 50.7946692 5.65921644 50.7946692 9.76390495 49.0361593 9.76390495 49.0361593 0.642517662 50.7946692 0.642517662 50.7946692 4.0953115 55.3553629 4.0953115 55.3553629 0.642517662 57.1145151 0.642517662 57.1145151 9.76390495 55.3553629 9.76390495"></polygon>
                    <polygon id="Fill-3" fill="#FFFFFF" points="59.4604367 2.20642261 59.4604367 4.0953115 62.2619782 4.0953115 62.2619782 5.65921644 59.4604367 5.65921644 59.4604367 8.2 63.3043674 8.2 63.3043674 9.76390495 57.7012845 9.76390495 57.7012845 0.642517662 63.1739884 0.642517662 63.1739884 2.20642261"></polygon>
                    <polygon id="Fill-4" fill="#FFFFFF" points="50.6211946 15.5703276 46.060501 15.5703276 46.060501 19.6750161 44.3013487 19.6750161 44.3013487 10.5536288 46.060501 10.5536288 46.060501 14.0064226 50.6211946 14.0064226 50.6211946 10.5536288 52.3797046 10.5536288 52.3797046 19.6750161 50.6211946 19.6750161"></polygon>
                    <g id="Group-36" transform="translate(0.000000, 0.037829)">
                        <path d="M57.4702633,18.2037893 C59.1908799,18.2037893 60.4676943,16.796596 60.4676943,15.0766217 C60.4676943,13.3566474 59.1908799,11.9494541 57.4702633,11.9494541 C55.750289,11.9494541 54.4734746,13.3566474 54.4734746,15.0766217 C54.4734746,16.796596 55.750289,18.2037893 57.4702633,18.2037893 M57.4702633,10.3855491 C60.2852922,10.3855491 62.2262042,12.483815 62.2262042,15.0766217 C62.2262042,17.6694284 60.2852922,19.7676943 57.4702633,19.7676943 C54.6558767,19.7676943 52.7149647,17.6694284 52.7149647,15.0766217 C52.7149647,12.483815 54.6558767,10.3855491 57.4702633,10.3855491" id="Fill-5" fill="#FFFFFF"></path>
                        <polygon id="Fill-7" fill="#FFFFFF" points="67.1907514 15.9753372 70.5131663 10.5161207 71.7514451 10.5161207 71.7514451 19.6368658 69.9916506 19.6368658 69.9916506 14.5552987 67.8028259 18.1384714 66.5780347 18.1384714 64.38921 14.5552987 64.38921 19.6368658 62.6300578 19.6368658 62.6300578 10.5161207 63.8676943 10.5161207"></polygon>
                        <polygon id="Fill-9" fill="#FFFFFF" points="74.0480411 12.0797046 74.0480411 13.9685934 76.8495825 13.9685934 76.8495825 15.5324984 74.0480411 15.5324984 74.0480411 18.073282 77.8919717 18.073282 77.8919717 19.6371869 72.2895311 19.6371869 72.2895311 10.5157996 77.7615928 10.5157996 77.7615928 12.0797046"></polygon>
                        <path d="M48.4754656,28.1143224 C50.1954399,28.1143224 51.4722543,26.7077714 51.4722543,24.9871548 C51.4722543,23.2671805 50.1954399,21.8599872 48.4754656,21.8599872 C46.7548491,21.8599872 45.4786769,23.2671805 45.4786769,24.9871548 C45.4786769,26.7077714 46.7548491,28.1143224 48.4754656,28.1143224 M48.4754656,20.2967245 C51.2898523,20.2967245 53.2307643,22.3943481 53.2307643,24.9871548 C53.2307643,27.5799615 51.2898523,29.6782274 48.4754656,29.6782274 C45.6604367,29.6782274 43.7195247,27.5799615 43.7195247,24.9871548 C43.7195247,22.3943481 45.6604367,20.2967245 48.4754656,20.2967245" id="Fill-11" fill="#FFFFFF"></path>
                        <polygon id="Fill-13" fill="#FFFFFF" points="55.5159281 21.9902376 55.5159281 23.8797688 58.3174695 23.8797688 58.3174695 25.4436737 55.5159281 25.4436737 55.5159281 29.54772 53.7567759 29.54772 53.7567759 20.4263327 59.2294798 20.4263327 59.2294798 21.9902376"></polygon>
                        <polygon id="Fill-15" fill="#FFFFFF" points="62.3643545 20.4265896 64.1235067 20.4265896 64.1235067 27.9840719 67.9674374 27.9840719 67.9674374 29.5473346 62.3643545 29.5473346"></polygon>
                        <path d="M71.4332049,25.9642261 L73.7524085,25.9642261 L72.5931278,23.2673732 L71.4332049,25.9642261 Z M68.0716121,29.5473988 L71.980411,20.4266538 L73.2180475,20.4266538 L77.1268465,29.5473988 L75.2899807,29.5473988 L74.4299936,27.528131 L70.768465,27.528131 L69.9084778,29.5473988 L68.0716121,29.5473988 Z" id="Fill-17" fill="#FFFFFF"></path>
                        <polygon id="Fill-19" fill="#FFFFFF" points="81.4396275 20.4265896 81.4396275 21.9904945 79.0292229 21.9904945 79.0292229 29.5473346 77.2707129 29.5473346 77.2707129 21.9904945 74.859666 21.9904945 74.859666 20.4265896"></polygon>
                        <mask id="mask-2" fill="white">
                            <use xlink:href="#path-1"></use>
                        </mask>
                        <g id="Clip-22"></g>
                        <polygon id="Fill-21" fill="#FFFFFF" mask="url(#mask-2)" points="82.0128452 29.5472062 83.7719974 29.5472062 83.7719974 20.4264611 82.0128452 20.4264611"></polygon>
                        <polygon id="Fill-23" fill="#FFFFFF" mask="url(#mask-2)" points="84.344894 20.4265896 85.5831728 20.4265896 90.6647399 26.3681439 90.6647399 20.4265896 92.4238921 20.4265896 92.4238921 29.5473346 91.1856134 29.5473346 86.1040462 23.6057803 86.1040462 29.5473346 84.344894 29.5473346"></polygon>
                        <polygon id="Fill-24" fill="#FFFFFF" mask="url(#mask-2)" points="48.8618497 35.7969814 52.1849069 30.3377649 53.4225434 30.3377649 53.4225434 39.45851 51.6633911 39.45851 51.6633911 34.3769428 49.4745665 37.9601156 48.2497752 37.9601156 46.0609505 34.3769428 46.0609505 39.45851 44.3011561 39.45851 44.3011561 30.3377649 45.5394348 30.3377649"></polygon>
                        <path d="M55.1903661,38.6507386 C54.4344252,37.9731535 54.0175979,37.0084778 54.0175979,35.614772 L54.0175979,30.3379576 L55.7761079,30.3379576 L55.7761079,35.7451509 C55.7761079,36.5788054 55.9983301,37.0868337 56.3759794,37.4387925 C56.766474,37.8164419 57.3143224,38.0251766 57.9263969,38.0251766 C58.5391137,38.0251766 59.0856776,37.8164419 59.4768144,37.4387925 C59.855106,37.0868337 60.0760437,36.5788054 60.0760437,35.7451509 L60.0760437,30.3379576 L61.8358382,30.3379576 L61.8358382,35.614772 C61.8358382,37.0084778 61.4183687,37.9731535 60.66307,38.6507386 C59.9591522,39.2763006 58.9552987,39.5890816 57.9263969,39.5890816 C56.8968529,39.5890816 55.8936416,39.2763006 55.1903661,38.6507386" id="Fill-25" fill="#FFFFFF" mask="url(#mask-2)"></path>
                        <path d="M62.9696211,37.0219011 C63.4911368,37.5954399 64.2856134,38.0251124 65.1192678,38.0251124 C65.9008992,38.0251124 66.4481053,37.5434168 66.4481053,36.8786769 C66.4481053,35.7059088 64.7544637,35.5633269 63.5296724,34.8459216 C62.8129094,34.4290944 62.2393706,33.8035324 62.2393706,32.7746307 C62.2393706,31.1458574 63.7377649,30.2075145 65.2496468,30.2075145 C66.1745022,30.2075145 67.0344894,30.4284522 67.8944766,31.0675016 L66.9824663,32.3706487 C66.6176622,32.031535 66.0055877,31.7707771 65.4057161,31.7707771 C64.7416185,31.7707771 63.9991651,32.0578677 63.9991651,32.7611432 C63.9991651,34.2332049 68.2072575,33.7771997 68.2072575,36.8523443 C68.2072575,38.4682723 66.7608863,39.5890173 65.1192678,39.5890173 C63.8944766,39.5890173 62.7608863,39.0809891 61.8225434,38.2210019 L62.9696211,37.0219011 Z" id="Fill-26" fill="#FFFFFF" mask="url(#mask-2)"></path>
                        <polygon id="Fill-27" fill="#FFFFFF" mask="url(#mask-2)" points="68.5285806 39.4585742 70.2877328 39.4585742 70.2877328 30.3378292 68.5285806 30.3378292"></polygon>
                        <path d="M72.3551702,34.8982017 C72.3551702,36.6701991 73.7103404,38.0253693 75.4694926,38.0253693 C76.655106,38.0253693 77.5150931,37.4524727 78.0494541,36.7614001 L79.2614001,37.8429672 C78.4534361,38.871869 77.0982659,39.5892742 75.4303147,39.5892742 C72.5895954,39.5892742 70.5966602,37.517341 70.5966602,34.8982017 C70.5966602,32.2790623 72.5639049,30.2071291 75.403982,30.2071291 C76.7591522,30.2071291 77.9190751,30.7151574 78.7398844,31.5109184 L77.6062942,32.709377 C77.059088,32.1615286 76.2903019,31.771034 75.3917791,31.771034 C73.6583173,31.771034 72.3551702,33.1653821 72.3551702,34.8982017" id="Fill-28" fill="#FFFFFF" mask="url(#mask-2)"></path>
                        <path d="M80.145729,36.7818161 L80.5034682,36.2155427 L80.6312781,36.2155427 L80.6312781,37.2155427 L80.4161207,37.2155427 L80.4161207,36.7380965 L80.1958253,37.08022 L80.0898523,37.08022 L79.8695568,36.7380965 L79.8695568,37.2155427 L79.6543995,37.2155427 L79.6543995,36.2155427 L79.7847784,36.2155427 L80.145729,36.7818161 Z M79.5362235,36.2155427 L79.5362235,36.4237315 L79.2947335,36.4237315 L79.2947335,37.2155427 L79.0840719,37.2155427 L79.0840719,36.4237315 L78.8425819,36.4237315 L78.8425819,36.2155427 L79.5362235,36.2155427 Z" id="Fill-29" fill="#FFFFFF" mask="url(#mask-2)"></path>
                        <path d="M0.685998715,0.68150289 L0.691779062,14.048876 C0.691779062,21.7290302 6.91657033,27.9557482 14.598009,27.9557482 C21.6853565,27.9557482 27.5350674,22.6519589 28.3944123,15.7964676 C26.6204881,17.5986513 23.8375723,18.9274888 20.4682723,18.9274888 C12.9557482,18.9274888 11.2749518,14.4958895 11.2749518,11.8536288 L11.2749518,7.59543995 C11.2749518,2.04438022 4.18118176,0.143288375 1.22742453,0.143288375 C0.929415543,0.143288375 0.685998715,0.382851638 0.685998715,0.68150289" id="Fill-30" fill="#FFFFFF" mask="url(#mask-2)"></path>
                        <path d="M25.0661529,4.97302505 L28.5054592,4.97302505 L28.5054592,3.60308285 L25.0661529,3.60308285 L25.0661529,4.97302505 Z M25.0661529,6.70134875 L28.5054592,6.70134875 L28.5054592,5.33204881 L25.0661529,5.33204881 L25.0661529,6.70134875 Z M25.0661529,8.43224149 L28.5054592,8.43224149 L28.5054592,7.06165703 L25.0661529,7.06165703 L25.0661529,8.43224149 Z M25.0661529,10.1618497 L28.5054592,10.1618497 L28.5054592,8.79190751 L25.0661529,8.79190751 L25.0661529,10.1618497 Z M25.0661529,11.8927425 L28.5054592,11.8927425 L28.5054592,10.522158 L25.0661529,10.522158 L25.0661529,11.8927425 Z M25.0661529,13.6217084 L28.5054592,13.6217084 L28.5054592,12.2524085 L25.0661529,12.2524085 L25.0661529,13.6217084 Z M25.0661529,13.9820167 L25.0661529,15.3538857 L27.6596018,15.3538857 C27.955684,15.0944123 28.2357097,14.8208092 28.5061015,14.5420681 L28.5061015,13.9820167 L25.0661529,13.9820167 Z M25.0661529,15.7129094 L25.0661529,17.0789981 C25.8657675,16.701991 26.5793192,16.2382787 27.2305716,15.7129094 L25.0661529,15.7129094 Z" id="Fill-31" fill="#FFFFFF" mask="url(#mask-2)"></path>
                        <path d="M20.7591522,10.1618497 L24.1978163,10.1618497 L24.1978163,8.79319204 L20.7591522,8.79319204 L20.7591522,10.1618497 Z M20.7591522,11.8927425 L24.1978163,11.8927425 L24.1978163,10.522158 L20.7591522,10.522158 L20.7591522,11.8927425 Z M20.7591522,13.6217084 L24.1978163,13.6217084 L24.1978163,12.2524085 L20.7591522,12.2524085 L20.7591522,13.6217084 Z M20.7591522,15.3538857 L24.1978163,15.3538857 L24.1978163,13.9820167 L20.7591522,13.9820167 L20.7591522,15.3538857 Z M20.7591522,17.0815671 L24.1978163,17.0815671 L24.1978163,15.7116249 L20.7591522,15.7116249 L20.7591522,17.0815671 Z M20.7591522,17.4425177 L20.7591522,18.0513809 C22.044316,18.0244059 23.1779062,17.805395 24.1849711,17.4425177 L20.7591522,17.4425177 Z" id="Fill-32" fill="#FFFFFF" mask="url(#mask-2)"></path>
                        <path d="M16.4502248,1.51380861 L19.8908157,1.51380861 L19.8908157,0.141939627 L16.4502248,0.141939627 L16.4502248,1.51380861 Z M16.4502248,3.24213231 L19.8908157,3.24213231 L19.8908157,1.87026333 L16.4502248,1.87026333 L16.4502248,3.24213231 Z M16.4502248,4.97302505 L19.8908157,4.97302505 L19.8908157,3.60308285 L16.4502248,3.60308285 L16.4502248,4.97302505 Z M16.4502248,6.70134875 L19.8908157,6.70134875 L19.8908157,5.33204881 L16.4502248,5.33204881 L16.4502248,6.70134875 Z M16.4502248,8.43224149 L19.8908157,8.43224149 L19.8908157,7.06165703 L16.4502248,7.06165703 L16.4502248,8.43224149 Z M16.4502248,10.1618497 L19.8908157,10.1618497 L19.8908157,8.79190751 L16.4502248,8.79190751 L16.4502248,10.1618497 Z M16.4502248,11.8927425 L19.8908157,11.8927425 L19.8908157,10.522158 L16.4502248,10.522158 L16.4502248,11.8927425 Z M16.4502248,13.6217084 L19.8908157,13.6217084 L19.8908157,12.2524085 L16.4502248,12.2524085 L16.4502248,13.6217084 Z M16.4502248,15.3538857 L19.8908157,15.3538857 L19.8908157,13.9820167 L16.4502248,13.9820167 L16.4502248,15.3538857 Z M16.4502248,17.0815671 L19.8908157,17.0815671 L19.8908157,15.7116249 L16.4502248,15.7116249 L16.4502248,17.0815671 Z M16.4502248,17.4425177 L16.4502248,17.4836224 C17.4405909,17.8163134 18.5889531,18.0032113 19.8908157,18.0475273 L19.8908157,17.4425177 L16.4502248,17.4425177 Z" id="Fill-33" fill="#FFFFFF" mask="url(#mask-2)"></path>
                        <path d="M12.1393706,6.70134875 L15.5799615,6.70134875 L15.5799615,5.33204881 L12.1393706,5.33204881 L12.1393706,6.70134875 Z M12.1393706,8.43224149 L15.5799615,8.43224149 L15.5799615,7.06165703 L12.1393706,7.06165703 L12.1393706,8.43224149 Z M12.1393706,8.79319204 L12.1445087,10.1618497 L15.5799615,10.1618497 L15.5799615,8.79319204 L12.1393706,8.79319204 Z M12.1445087,10.522158 L12.1470777,11.8535645 L12.1470777,11.8927425 L15.5799615,11.8927425 L15.5799615,10.522158 L12.1445087,10.522158 Z M12.1599229,12.253693 C12.1894669,12.6140013 12.2581888,13.0969814 12.4251766,13.6217084 L15.5799615,13.6217084 L15.5799615,12.253693 L12.1599229,12.253693 Z M12.554271,13.9820167 C12.7276814,14.430957 12.9723828,14.896596 13.3192036,15.3538857 L15.5799615,15.3538857 L15.5799615,13.9820167 L12.554271,13.9820167 Z M13.6229929,15.7129094 C13.6448298,15.7360308 13.6653821,15.7604367 13.6885035,15.7848426 C14.1824021,16.3063584 14.7803468,16.7418112 15.4739884,17.0815671 L15.5799615,17.0815671 L15.5799615,15.7129094 L13.6229929,15.7129094 Z" id="Fill-34" fill="#FFFFFF" mask="url(#mask-2)"></path>
                        <path d="M18.355106,36.1569685 C18.355106,35.3817598 18.7578035,35.0786127 19.4366731,35.0786127 L19.8958895,35.0786127 L19.8958895,33.7138086 L19.4366731,33.7138086 C17.7828516,33.7138086 16.8149647,34.4479127 16.8149647,36.3342325 L16.8149647,39.4703918 L18.355106,39.4703918 L18.355106,36.1569685 Z M6.62292871,39.4703918 L8.16371227,39.4703918 L8.16371227,35.0188825 L9.7,35.0188825 L9.7,33.7138086 L8.16371227,33.7138086 L8.16371227,33.3657033 C8.16371227,32.58921 8.56191394,32.2892742 9.24206808,32.2892742 L9.7,32.2892742 L9.7,30.9231856 L9.24206808,30.9231856 C7.59274245,30.9231856 6.62292871,31.6579319 6.62292871,33.5429672 L6.62292871,39.4703918 Z M26.2170199,33.5956326 C24.45851,33.5956326 23.2311496,34.9514451 23.2311496,36.6104046 C23.2311496,38.2539499 24.4842004,39.58921 26.0140655,39.58921 C26.4296082,39.58921 26.8245986,39.4999358 27.1682081,39.3265254 L27.1682081,37.8596018 C26.9113038,38.0914579 26.579255,38.2340398 26.2170199,38.2340398 C25.3968529,38.2340398 24.7314708,37.530122 24.7314708,36.6219653 C24.7314708,35.675273 25.3968529,34.9745665 26.2170199,34.9745665 C27.0391137,34.9745665 27.7064226,35.7086705 27.7064226,36.6219653 L27.7064226,39.4703918 L29.1913295,39.4703918 L29.1913295,36.6104046 C29.1913295,34.9514451 27.9652537,33.5956326 26.2170199,33.5956326 Z M4.08856776,33.7125241 L4.08856776,36.8974952 C4.08856776,37.6881182 3.48676943,38.1621066 2.81689146,38.1621066 C2.10783558,38.1621066 1.5445729,37.6059088 1.5445729,36.8974952 L1.5445729,33.7125241 L-6.42260758e-05,33.7125241 L-6.42260758e-05,36.8384072 C-6.42260758e-05,38.2944123 1.01470777,39.58921 2.78156712,39.58921 C4.68394348,39.58921 5.6312781,38.3078998 5.6312781,36.8384072 L5.6312781,33.7125241 L4.08856776,33.7125241 Z M22.3043674,33.7138086 L20.759088,33.7138086 L20.759088,35.0837508 L20.759088,39.4703918 L22.3043674,39.4703918 L22.3043674,33.7138086 Z M21.5330122,30.8120745 C20.9742453,30.8120745 20.5220938,31.2372511 20.5220938,31.7947335 C20.5220938,32.3535003 20.9742453,32.781246 21.5330122,32.781246 C22.08921,32.781246 22.5407193,32.3535003 22.5407193,31.7947335 C22.5407193,31.2372511 22.08921,30.8120745 21.5330122,30.8120745 Z M13.0564547,38.1672447 C13.9588311,38.1672447 14.5747592,37.4639692 14.5747592,36.5975594 C14.5747592,35.734361 13.9588311,35.0188825 13.0564547,35.0188825 C12.1521516,35.0188825 11.5381503,35.734361 11.5381503,36.5975594 C11.5381503,37.4639692 12.1521516,38.1672447 13.0564547,38.1672447 Z M13.0564547,33.5930636 C14.7989082,33.5930636 16.1206808,34.9373154 16.1206808,36.5975594 C16.1206808,38.2597303 14.7989082,39.58921 13.0564547,39.58921 C11.3127168,39.58921 9.99222864,38.2597303 9.99222864,36.5975594 C9.99222864,34.9373154 11.3127168,33.5930636 13.0564547,33.5930636 Z" id="Fill-35" fill="#FFFFFF" mask="url(#mask-2)"></path>
                    </g>
                </g>
            </g>
        </g>
    </g>
</svg>