<?xml version="1.0" encoding="UTF-8"?>
<svg width="271px" height="116px" viewBox="0 0 271 116" version="1.1" xmlns="http://www.w3.org/2000/svg" xmlns:xlink="http://www.w3.org/1999/xlink">
    <!-- Generator: sketchtool 52.6 (67491) - http://www.bohemiancoding.com/sketch -->
    <title>7349801C-4815-471E-90C2-9D48D8EB77EA</title>
    <desc>Created with sketchtool.</desc>
    <defs>
        <polygon id="path-1" points="0 115.475452 270.819333 115.475452 270.819333 0.414018088 0 0.414018088"></polygon>
    </defs>
    <g id="Page-1" stroke="none" stroke-width="1" fill="none" fill-rule="evenodd">
        <g id="1440_Uforia_B2B" transform="translate(-412.000000, -185.000000)">
            <g id="Uforia_logo" transform="translate(412.000000, 185.000000)">
                <polygon id="Fill-1" fill="#FFFFFF" points="143 2 143 6.62960355 135.673499 6.62960355 135.673499 29 130.326501 29 130.326501 6.62960355 123 6.62960355 123 2"></polygon>
                <polygon id="Fill-2" fill="#FFFFFF" points="161.773732 16.8498099 148.22436 16.8498099 148.22436 29 143 29 143 2 148.22436 2 148.22436 12.2205323 161.773732 12.2205323 161.773732 2 167 2 167 29 161.773732 29"></polygon>
                <polygon id="Fill-3" fill="#FFFFFF" points="175.709422 6.62927757 175.709422 12.2205323 183.209422 12.2205323 183.209422 16.8498099 175.709422 16.8498099 175.709422 24.3707224 186 24.3707224 186 29 171 29 171 2 185.650963 2 185.650963 6.62927757"></polygon>
                <polygon id="Fill-4" fill="#FFFFFF" points="148.77564 46.8498099 135.226268 46.8498099 135.226268 59 130 59 130 32 135.226268 32 135.226268 42.2205323 148.77564 42.2205323 148.77564 32 154 32 154 59 148.77564 59"></polygon>
                <g id="Group-36">
                    <path d="M168.398647,53.0979134 C173.440376,53.0979134 177.181682,48.9933269 177.181682,43.9764018 C177.181682,38.9594767 173.440376,34.8548902 168.398647,34.8548902 C163.3588,34.8548902 159.617494,38.9594767 159.617494,43.9764018 C159.617494,48.9933269 163.3588,53.0979134 168.398647,53.0979134 M168.398647,30.2931977 C176.64721,30.2931977 182.334446,36.4135465 182.334446,43.9764018 C182.334446,51.5392571 176.64721,57.6596059 168.398647,57.6596059 C160.151967,57.6596059 154.464731,51.5392571 154.464731,43.9764018 C154.464731,36.4135465 160.151967,30.2931977 168.398647,30.2931977" id="Fill-5" fill="#FFFFFF"></path>
                    <polygon id="Fill-7" fill="#FFFFFF" points="196.8815 46.5978295 206.616799 30.6740568 210.245187 30.6740568 210.245187 57.2779974 205.08866 57.2779974 205.08866 42.4557752 198.674993 52.9073902 195.086125 52.9073902 188.672458 42.4557752 188.672458 57.2779974 183.517812 57.2779974 183.517812 30.6740568 187.144319 30.6740568"></polygon>
                    <polygon id="Fill-9" fill="#FFFFFF" points="216.974644 35.2348127 216.974644 40.744438 225.183686 40.744438 225.183686 45.3061305 216.974644 45.3061305 216.974644 52.7172416 228.238082 52.7172416 228.238082 57.2789341 211.821881 57.2789341 211.821881 30.6731202 227.856047 30.6731202 227.856047 35.2348127"></polygon>
                    <path d="M142.042203,82.0055556 C147.082051,82.0055556 150.823356,77.9028424 150.823356,72.8840439 C150.823356,67.8671189 147.082051,63.7625323 142.042203,63.7625323 C137.000474,63.7625323 133.261051,67.8671189 133.261051,72.8840439 C133.261051,77.9028424 137.000474,82.0055556 142.042203,82.0055556 M142.042203,59.2027132 C150.288884,59.2027132 155.97612,65.3211886 155.97612,72.8840439 C155.97612,80.4468992 150.288884,86.5672481 142.042203,86.5672481 C133.793641,86.5672481 128.106405,80.4468992 128.106405,72.8840439 C128.106405,65.3211886 133.793641,59.2027132 142.042203,59.2027132" id="Fill-11" fill="#FFFFFF"></path>
                    <polygon id="Fill-13" fill="#FFFFFF" points="162.672078 64.1424548 162.672078 69.6539535 170.88112 69.6539535 170.88112 74.215646 162.672078 74.215646 162.672078 86.1865762 157.517433 86.1865762 157.517433 59.5807623 173.553481 59.5807623 173.553481 64.1424548"></polygon>
                    <polygon id="Fill-15" fill="#FFFFFF" points="182.739252 59.5815116 187.893898 59.5815116 187.893898 81.6256331 199.157335 81.6256331 199.157335 86.1854522 182.739252 86.1854522"></polygon>
                    <path d="M209.312684,75.7340245 L216.108385,75.7340245 L212.711476,67.8676809 L209.312684,75.7340245 Z M199.462587,86.1856395 L210.916101,59.581699 L214.542608,59.581699 L225.996122,86.1856395 L220.61376,86.1856395 L218.093837,80.2957171 L207.364872,80.2957171 L204.844948,86.1856395 L199.462587,86.1856395 Z" id="Fill-17" fill="#FFFFFF"></path>
                    <polygon id="Fill-19" fill="#FFFFFF" points="238.633378 59.5815116 238.633378 64.1432041 231.570441 64.1432041 231.570441 86.1854522 226.417677 86.1854522 226.417677 64.1432041 219.352858 64.1432041 219.352858 59.5815116"></polygon>
                    <mask id="mask-2" fill="white">
                        <use xlink:href="#path-1"></use>
                    </mask>
                    <g id="Clip-22"></g>
                    <polygon id="Fill-21" fill="#FFFFFF" mask="url(#mask-2)" points="240.313014 86.1850775 245.46766 86.1850775 245.46766 59.581137 240.313014 59.581137"></polygon>
                    <polygon id="Fill-23" fill="#FFFFFF" mask="url(#mask-2)" points="247.146354 59.5815116 250.774743 59.5815116 265.664687 76.9121964 265.664687 59.5815116 270.819333 59.5815116 270.819333 86.1854522 267.190944 86.1854522 252.301 68.8547674 252.301 86.1854522 247.146354 86.1854522"></polygon>
                    <polygon id="Fill-24" fill="#FFFFFF" mask="url(#mask-2)" points="143.174381 104.4148 152.911562 88.4910271 156.538069 88.4910271 156.538069 115.094968 151.383423 115.094968 151.383423 100.272745 144.969756 110.72436 141.380888 110.72436 134.967222 100.272745 134.967222 115.094968 129.810694 115.094968 129.810694 88.4910271 133.439083 88.4910271"></polygon>
                    <path d="M161.718121,112.738811 C159.503072,110.76239 158.28169,107.948566 158.28169,103.88332 L158.28169,88.4915891 L163.434454,88.4915891 L163.434454,104.263618 C163.434454,106.695271 164.085607,108.177119 165.19219,109.203734 C166.336412,110.305284 167.941711,110.914134 169.735204,110.914134 C171.530579,110.914134 173.132114,110.305284 174.278218,109.203734 C175.386683,108.177119 176.034072,106.695271 176.034072,104.263618 L176.034072,88.4915891 L181.1906,88.4915891 L181.1906,103.88332 C181.1906,107.948566 179.967336,110.76239 177.754169,112.738811 C175.691558,114.563488 172.750079,115.475827 169.735204,115.475827 C166.718447,115.475827 163.77885,114.563488 161.718121,112.738811" id="Fill-25" fill="#FFFFFF" mask="url(#mask-2)"></path>
                    <path d="M184.512797,107.98772 C186.040935,109.660652 188.368901,110.913947 190.811665,110.913947 C193.101991,110.913947 194.705408,109.508908 194.705408,107.569955 C194.705408,104.149154 189.74272,103.733262 186.153852,101.640691 C184.053602,100.424864 182.373026,98.6001873 182.373026,95.5990245 C182.373026,90.8481202 186.763602,88.1111047 191.193699,88.1111047 C193.903699,88.1111047 196.423623,88.7555491 198.943547,90.6195672 L196.271185,94.4206654 C195.202241,93.4315181 193.408748,92.6709238 191.651012,92.6709238 C189.705081,92.6709238 187.529553,93.5083269 187.529553,95.5596835 C187.529553,99.8534819 199.860053,98.5233786 199.860053,107.493146 C199.860053,112.206583 195.621915,115.47564 190.811665,115.47564 C187.222797,115.47564 183.901165,113.993792 181.151644,111.485329 L184.512797,107.98772 Z" id="Fill-26" fill="#FFFFFF" mask="url(#mask-2)"></path>
                    <polygon id="Fill-27" fill="#FFFFFF" mask="url(#mask-2)" points="200.80159 115.095155 205.956236 115.095155 205.956236 88.4912145 200.80159 88.4912145"></polygon>
                    <path d="M212.014215,101.793185 C212.014215,106.961854 215.985118,110.914696 221.139764,110.914696 C224.613833,110.914696 227.133757,109.243637 228.699535,107.227875 L232.250764,110.382655 C229.883278,113.383818 225.912375,115.476389 221.024965,115.476389 C212.701125,115.476389 206.861451,109.432849 206.861451,101.793185 C206.861451,94.1535207 212.625847,88.1099806 220.947806,88.1099806 C224.918708,88.1099806 228.3175,89.5918282 230.722625,91.9129522 L227.400993,95.4086886 C225.797576,93.8106912 223.544889,92.6716731 220.912049,92.6716731 C215.832681,92.6716731 212.014215,96.738792 212.014215,101.793185" id="Fill-28" fill="#FFFFFF" mask="url(#mask-2)"></path>
                    <path d="M234.842013,107.164367 L235.890256,105.635685 L236.264763,105.635685 L236.264763,108.335233 L235.634312,108.335233 L235.634312,107.046344 L234.988805,107.969922 L234.678284,107.969922 L234.032777,107.046344 L234.032777,108.335233 L233.402326,108.335233 L233.402326,105.635685 L233.78436,105.635685 L234.842013,107.164367 Z M233.056048,105.635685 L233.056048,106.1977 L232.348437,106.1977 L232.348437,108.335233 L231.731159,108.335233 L231.731159,106.1977 L231.023548,106.1977 L231.023548,105.635685 L233.056048,105.635685 Z" id="Fill-29" fill="#FFFFFF" mask="url(#mask-2)"></path>
                    <path d="M2.01010486,1.98784884 L2.02704236,40.9786111 C2.02704236,63.3805491 20.2668479,81.5430168 42.7749035,81.5430168 C63.5421604,81.5430168 80.6829104,66.0726034 83.2009521,46.0760917 C78.0030215,51.3328101 69.8485562,55.2088437 59.9758757,55.2088437 C37.9627715,55.2088437 33.0377229,42.2824871 33.0377229,34.5753811 L33.0377229,22.1548385 C33.0377229,5.96317183 12.2516465,0.417952196 3.59658403,0.417952196 C2.72336181,0.417952196 2.01010486,1.11672481 2.01010486,1.98784884" id="Fill-30" fill="#FFFFFF" mask="url(#mask-2)"></path>
                    <path d="M73.4485278,14.5056202 L83.5263403,14.5056202 L83.5263403,10.5096899 L73.4485278,10.5096899 L73.4485278,14.5056202 Z M73.4485278,19.5468992 L83.5263403,19.5468992 L83.5263403,15.5528424 L73.4485278,15.5528424 L73.4485278,19.5468992 Z M73.4485278,24.5956718 L83.5263403,24.5956718 L83.5263403,20.5978682 L73.4485278,20.5978682 L73.4485278,24.5956718 Z M73.4485278,29.6406977 L83.5263403,29.6406977 L83.5263403,25.6447674 L73.4485278,25.6447674 L73.4485278,29.6406977 Z M73.4485278,34.6894703 L83.5263403,34.6894703 L83.5263403,30.6916667 L73.4485278,30.6916667 L73.4485278,34.6894703 Z M73.4485278,39.7326227 L83.5263403,39.7326227 L83.5263403,35.7385659 L73.4485278,35.7385659 L73.4485278,39.7326227 Z M73.4485278,40.7835917 L73.4485278,44.7851421 L81.0478194,44.7851421 C81.9153958,44.0282946 82.7359236,43.2302326 83.5282222,42.4171835 L83.5282222,40.7835917 L73.4485278,40.7835917 Z M73.4485278,45.8323643 L73.4485278,49.8170543 C75.7915486,48.7173773 77.8823889,47.3647933 79.7906806,45.8323643 L73.4485278,45.8323643 Z" id="Fill-31" fill="#FFFFFF" mask="url(#mask-2)"></path>
                    <path d="M60.8282083,29.6406977 L70.9041389,29.6406977 L70.9041389,25.6485142 L60.8282083,25.6485142 L60.8282083,29.6406977 Z M60.8282083,34.6894703 L70.9041389,34.6894703 L70.9041389,30.6916667 L60.8282083,30.6916667 L60.8282083,34.6894703 Z M60.8282083,39.7326227 L70.9041389,39.7326227 L70.9041389,35.7385659 L60.8282083,35.7385659 L60.8282083,39.7326227 Z M60.8282083,44.7851421 L70.9041389,44.7851421 L70.9041389,40.7835917 L60.8282083,40.7835917 L60.8282083,44.7851421 Z M60.8282083,49.8245478 L70.9041389,49.8245478 L70.9041389,45.8286176 L60.8282083,45.8286176 L60.8282083,49.8245478 Z M60.8282083,50.8773902 L60.8282083,52.6533592 C64.5939792,52.574677 67.9156111,51.9358527 70.8665,50.8773902 L60.8282083,50.8773902 Z" id="Fill-32" fill="#FFFFFF" mask="url(#mask-2)"></path>
                    <path d="M48.2022431,4.41556848 L58.2838194,4.41556848 L58.2838194,0.414018088 L48.2022431,0.414018088 L48.2022431,4.41556848 Z M48.2022431,9.45684755 L58.2838194,9.45684755 L58.2838194,5.45529716 L48.2022431,5.45529716 L48.2022431,9.45684755 Z M48.2022431,14.5056202 L58.2838194,14.5056202 L58.2838194,10.5096899 L48.2022431,10.5096899 L48.2022431,14.5056202 Z M48.2022431,19.5468992 L58.2838194,19.5468992 L58.2838194,15.5528424 L48.2022431,15.5528424 L48.2022431,19.5468992 Z M48.2022431,24.5956718 L58.2838194,24.5956718 L58.2838194,20.5978682 L48.2022431,20.5978682 L48.2022431,24.5956718 Z M48.2022431,29.6406977 L58.2838194,29.6406977 L58.2838194,25.6447674 L48.2022431,25.6447674 L48.2022431,29.6406977 Z M48.2022431,34.6894703 L58.2838194,34.6894703 L58.2838194,30.6916667 L48.2022431,30.6916667 L48.2022431,34.6894703 Z M48.2022431,39.7326227 L58.2838194,39.7326227 L58.2838194,35.7385659 L48.2022431,35.7385659 L48.2022431,39.7326227 Z M48.2022431,44.7851421 L58.2838194,44.7851421 L58.2838194,40.7835917 L48.2022431,40.7835917 L48.2022431,44.7851421 Z M48.2022431,49.8245478 L58.2838194,49.8245478 L58.2838194,45.8286176 L48.2022431,45.8286176 L48.2022431,49.8245478 Z M48.2022431,50.8773902 L48.2022431,50.9972868 C51.1042014,51.9677003 54.4691181,52.5128553 58.2838194,52.6421189 L58.2838194,50.8773902 L48.2022431,50.8773902 Z" id="Fill-33" fill="#FFFFFF" mask="url(#mask-2)"></path>
                    <path d="M35.5706319,19.5468992 L45.6522083,19.5468992 L45.6522083,15.5528424 L35.5706319,15.5528424 L35.5706319,19.5468992 Z M35.5706319,24.5956718 L45.6522083,24.5956718 L45.6522083,20.5978682 L35.5706319,20.5978682 L35.5706319,24.5956718 Z M35.5706319,25.6485142 L35.5856875,29.6406977 L45.6522083,29.6406977 L45.6522083,25.6485142 L35.5706319,25.6485142 Z M35.5856875,30.6916667 L35.5932153,34.5751938 L35.5932153,34.6894703 L45.6522083,34.6894703 L45.6522083,30.6916667 L35.5856875,30.6916667 Z M35.6308542,35.7423127 C35.7174236,36.7932817 35.9187917,38.2020672 36.4080972,39.7326227 L45.6522083,39.7326227 L45.6522083,35.7423127 L35.6308542,35.7423127 Z M36.7863681,40.7835917 C37.2944931,42.0930879 38.0115139,43.451292 39.0277639,44.7851421 L45.6522083,44.7851421 L45.6522083,40.7835917 L36.7863681,40.7835917 Z M39.9179236,45.8323643 C39.9819097,45.8998062 40.0421319,45.9709948 40.1098819,46.0421835 C41.5570972,47.5633721 43.3091875,48.8335271 45.3416875,49.8245478 L45.6522083,49.8245478 L45.6522083,45.8323643 L39.9179236,45.8323643 Z" id="Fill-34" fill="#FFFFFF" mask="url(#mask-2)"></path>
                    <path d="M53.7839021,105.464832 C53.7839021,103.203656 54.9638812,102.319419 56.9530965,102.319419 L58.2986868,102.319419 L58.2986868,98.3384755 L56.9530965,98.3384755 C52.1070896,98.3384755 49.2709993,100.479755 49.2709993,105.981886 L49.2709993,115.129625 L53.7839021,115.129625 L53.7839021,105.464832 Z M19.4064229,115.129625 L23.9212076,115.129625 L23.9212076,102.145194 L28.4228188,102.145194 L28.4228188,98.3384755 L23.9212076,98.3384755 L23.9212076,97.3231008 C23.9212076,95.0581783 25.0880132,94.1833075 27.0809924,94.1833075 L28.4228188,94.1833075 L28.4228188,90.1986176 L27.0809924,90.1986176 C22.248159,90.1986176 19.4064229,92.34177 19.4064229,97.840155 L19.4064229,115.129625 Z M76.820784,97.9937726 C71.6680201,97.9937726 68.0716243,101.948488 68.0716243,106.787442 C68.0716243,111.581434 71.7432979,115.476202 76.2260896,115.476202 C77.4437076,115.476202 78.6011035,115.215801 79.6079437,114.709987 L79.6079437,110.431176 C78.855166,111.107468 77.8822007,111.523359 76.820784,111.523359 C74.417541,111.523359 72.4678465,109.470129 72.4678465,106.821163 C72.4678465,104.059793 74.417541,102.01593 76.820784,102.01593 C79.2296729,102.01593 81.1850132,104.157209 81.1850132,106.821163 L81.1850132,115.129625 L85.5360688,115.129625 L85.5360688,106.787442 C85.5360688,101.948488 81.9434368,97.9937726 76.820784,97.9937726 Z M11.9802701,98.3347287 L11.9802701,107.624845 C11.9802701,109.930982 10.2168882,111.31354 8.25402014,111.31354 C6.17635347,111.31354 4.52588819,109.691189 4.52588819,107.624845 L4.52588819,98.3347287 L-0.000188194444,98.3347287 L-0.000188194444,107.452494 C-0.000188194444,111.699457 2.97328403,115.476202 8.15051319,115.476202 C13.7248326,115.476202 16.5007007,111.738798 16.5007007,107.452494 L16.5007007,98.3347287 L11.9802701,98.3347287 Z M65.3559785,98.3384755 L60.8280201,98.3384755 L60.8280201,102.334406 L60.8280201,115.129625 L65.3559785,115.129625 L65.3559785,98.3384755 Z M63.0957632,89.874522 C61.4584715,89.874522 60.1335826,91.1147028 60.1335826,92.740801 C60.1335826,94.370646 61.4584715,95.6183204 63.0957632,95.6183204 C64.7255271,95.6183204 66.048534,94.370646 66.048534,92.740801 C66.048534,91.1147028 64.7255271,89.874522 63.0957632,89.874522 Z M38.2578604,111.328527 C40.9019924,111.328527 42.7067771,109.277171 42.7067771,106.749974 C42.7067771,104.232145 40.9019924,102.145194 38.2578604,102.145194 C35.6080826,102.145194 33.8089438,104.232145 33.8089438,106.749974 C33.8089438,109.277171 35.6080826,111.328527 38.2578604,111.328527 Z M38.2578604,97.9862791 C43.3635757,97.9862791 47.2366174,101.907274 47.2366174,106.749974 C47.2366174,111.598295 43.3635757,115.476202 38.2578604,115.476202 C33.1483813,115.476202 29.2791035,111.598295 29.2791035,106.749974 C29.2791035,101.907274 33.1483813,97.9862791 38.2578604,97.9862791 Z" id="Fill-35" fill="#FFFFFF" mask="url(#mask-2)"></path>
                </g>
            </g>
        </g>
    </g>
</svg>