<?xml version="1.0" encoding="UTF-8"?>
<svg width="228px" height="23px" viewBox="0 0 228 23" version="1.1" xmlns="http://www.w3.org/2000/svg" xmlns:xlink="http://www.w3.org/1999/xlink">
    <!-- Generator: sketchtool 52.6 (67491) - http://www.bohemiancoding.com/sketch -->
    <title>DB9BEDD1-EA95-45A5-BD1F-DF6709372C10</title>
    <desc>Created with sketchtool.</desc>
    <defs>
        <polygon id="path-1" points="0 0.996785714 10.2614286 0.996785714 10.2614286 11.8955952 0 11.8955952"></polygon>
        <polygon id="path-3" points="0 0.0885714286 8.6352381 0.0885714286 8.6352381 11.8504762 0 11.8504762"></polygon>
    </defs>
    <g id="Page-1" stroke="none" stroke-width="1" fill="none" fill-rule="evenodd">
        <g id="1440_Uforia_B2B_city" transform="translate(-1090.000000, -818.000000)">
            <g id="Footer" transform="translate(0.000000, 791.000000)">
                <g id="Univision-logo" transform="translate(1090.000000, 26.000000)">
                    <g id="Group-27" transform="translate(70.000000, 0.000000)">
                        <polygon id="Fill-1" fill="#FFFFFF" points="55.2653571 17.4040476 52.4879762 17.4040476 52.4879762 8.49333333 52.4879762 7.0552381 55.2653571 7.0552381"></polygon>
                        <polygon id="Fill-2" fill="#FFFFFF" points="73.0794048 17.4040476 70.3020238 17.4040476 70.3020238 8.49333333 70.3020238 7.0552381 73.0794048 7.0552381"></polygon>
                        <polygon id="Fill-3" fill="#FFFFFF" points="88.5986905 17.4040476 85.8213095 17.4040476 85.8213095 8.49333333 85.8213095 7.0552381 88.5986905 7.0552381"></polygon>
                        <g id="Group-26" transform="translate(0.000000, 0.651786)">
                            <path d="M42.6363095,16.7522619 L42.6363095,11.0272619 C42.6363095,9.60940476 43.7053571,8.76059524 44.910119,8.76059524 C46.189881,8.76059524 47.1982143,9.74869048 47.1982143,11.0272619 L47.1982143,16.7522619 L49.9720238,16.7522619 L49.9720238,11.1332143 C49.9720238,8.51178571 48.1458333,6.18916667 44.9720238,6.18916667 C41.5577381,6.18916667 39.8541667,8.49511905 39.8541667,11.1332143 L39.8541667,16.7522619 L42.6363095,16.7522619 Z" id="Fill-4" fill="#FFFFFF"></path>
                            <path d="M106.379048,16.7522619 L106.379048,11.0272619 C106.379048,9.60940476 107.450476,8.76059524 108.654048,8.76059524 C109.93381,8.76059524 110.942143,9.74869048 110.942143,11.0272619 L110.942143,16.7522619 L113.714762,16.7522619 L113.714762,11.1332143 C113.714762,8.51178571 111.889762,6.18916667 108.714762,6.18916667 C105.301667,6.18916667 103.596905,8.49511905 103.596905,11.1332143 L103.596905,16.7522619 L106.379048,16.7522619 Z" id="Fill-6" fill="#FFFFFF"></path>
                            <polygon id="Fill-8" fill="#FFFFFF" points="62.7802381 12.7216667 65.6183333 6.40261905 68.5064286 6.40261905 63.7445238 16.752619 61.8254762 16.752619 57.062381 6.40261905 59.9409524 6.40261905"></polygon>
                            <path d="M76.6532143,13.5971429 C77.3579762,14.2352381 78.4484524,14.6185714 79.490119,14.6185714 C80.2389286,14.6185714 80.8139286,14.2566667 80.8139286,13.7471429 C80.8139286,12.1911905 75.7996429,12.7459524 75.7996429,9.4102381 C75.7996429,7.42571429 77.719881,6.18880952 79.7675,6.18880952 C81.1163095,6.18880952 82.5841667,6.69952381 83.2710714,7.23285714 L81.9722619,9.24 C81.4365476,8.85666667 80.7329762,8.53880952 79.9829762,8.53880952 C79.2175,8.53880952 78.5746429,8.83404762 78.5746429,9.36619048 C78.5746429,10.7138095 83.5913095,10.1769048 83.5913095,13.7685714 C83.5913095,15.7507143 81.6520238,16.9685714 79.4734524,16.9685714 C78.0436905,16.9685714 76.5258333,16.4757143 75.3127381,15.5792857 L76.6532143,13.5971429 Z" id="Fill-10" fill="#FFFFFF"></path>
                            <path d="M96.1053571,14.4039286 C97.7291667,14.4039286 98.8363095,13.1420238 98.8363095,11.5908333 C98.8363095,10.0313095 97.7291667,8.75035714 96.1053571,8.75035714 C94.4863095,8.75035714 93.3696429,10.0313095 93.3696429,11.5908333 C93.3696429,13.1420238 94.4863095,14.4039286 96.1053571,14.4039286 M96.1053571,6.18964286 C99.2434524,6.18964286 101.606548,8.60154762 101.606548,11.5908333 C101.606548,14.5789286 99.2434524,16.9682143 96.1053571,16.9682143 C92.9672619,16.9682143 90.589881,14.5789286 90.589881,11.5908333 C90.589881,8.60154762 92.9672619,6.18964286 96.1053571,6.18964286" id="Fill-12" fill="#FFFFFF"></path>
                            <path d="M34.8063095,6.40309524 L34.8063095,12.1304762 C34.8063095,13.5471429 33.7253571,14.3983333 32.5182143,14.3983333 C31.2444048,14.3983333 30.2313095,13.4042857 30.2313095,12.1304762 L30.2313095,6.40309524 L27.4575,6.40309524 L27.4575,12.0233333 C27.4575,14.64 29.2789286,16.9685714 32.4575,16.9685714 C35.8717857,16.9685714 37.5777381,14.6614286 37.5777381,12.0233333 L37.5777381,6.40309524 L34.8063095,6.40309524 Z" id="Fill-14" fill="#FFFFFF"></path>
                            <path d="M8.63559524,0.538452381 L8.63559524,5.33488095 L8.63559524,13.0408333 C9.25702381,13.0408333 12.7332143,13.1289286 15.6772619,12.8670238 C16.4189286,12.7908333 17.1427381,12.6967857 17.8344048,12.5765476 C19.5284524,12.2563095 20.9570238,11.7527381 21.4522619,11.3384524 L21.4522619,1.78369048 C20.1617857,0.826547619 14.7284524,0.538452381 8.63559524,0.538452381" id="Fill-16" fill="#00C473"></path>
                            <path d="M21.4519048,11.4986905 L21.4519048,11.3391667 C20.9566667,11.7534524 19.5292857,12.2570238 17.8340476,12.5772619 C17.1435714,12.6963095 16.4185714,12.7915476 15.6769048,12.8665476 C12.7340476,13.1284524 9.25785714,13.0415476 8.6352381,13.0415476 L8.6352381,13.2546429 C8.63642857,13.7510714 8.64357143,14.1772619 8.65547619,14.6594048 C8.65904762,14.7879762 8.66261905,14.920119 8.66619048,15.0594048 C8.68404762,15.6665476 8.71142857,16.2677381 8.74952381,16.8510714 C8.83047619,18.0891667 8.96738095,19.2486905 9.18166667,20.2153571 C9.42214286,21.2975 9.76261905,22.1403571 10.237619,22.5867857 C10.2459524,22.5939286 10.2530952,22.6022619 10.2614286,22.6094048 C10.415,22.6153571 10.5697619,22.6189286 10.7257143,22.6189286 C14.362619,22.6189286 17.5757143,20.8094048 19.515,18.0427381 C20.215,17.045119 20.7483333,15.7403571 21.0769048,14.3772619 C21.3209524,13.4629762 21.4519048,12.5034524 21.4519048,11.5117857 C21.4519048,11.5117857 21.4507143,11.5117857 21.4507143,11.5129762 L21.4507143,11.499881 C21.4519048,11.4986905 21.4519048,11.4986905 21.4519048,11.4986905" id="Fill-18" fill="#1D1DEA"></path>
                            <g id="Group-22" transform="translate(0.000000, 10.714286)">
                                <mask id="mask-2" fill="white">
                                    <use xlink:href="#path-1"></use>
                                </mask>
                                <g id="Clip-21"></g>
                                <path d="M10.237619,11.8729762 C9.76261905,11.4265476 9.42095238,10.5836905 9.18166667,9.50154762 C8.96738095,8.53369048 8.83047619,7.37535714 8.74952381,6.1372619 C8.71142857,5.5527381 8.68404762,4.9527381 8.66619048,4.34559524 C8.66261905,4.20630952 8.65904762,4.07297619 8.65547619,3.94559524 C8.64357143,3.46345238 8.63642857,3.03607143 8.6352381,2.53964286 L8.6352381,2.32654762 C5.8102381,2.32654762 3.36380952,2.11464286 2.19238095,1.90154762 C0.961428571,1.6777381 0.142380952,1.22535714 -0.000476190476,0.996785714 C-0.000476190476,2.05154762 0.151904762,3.2527381 0.436428571,4.21583333 C0.769761905,5.35035714 1.2852381,6.40392857 1.94952381,7.34678571 C3.80785714,9.98607143 6.82571429,11.7491667 10.2614286,11.8955952 C10.2530952,11.8884524 10.2459524,11.880119 10.237619,11.8729762" id="Fill-20" fill="#ED1C24" mask="url(#mask-2)"></path>
                            </g>
                            <g id="Group-25" transform="translate(0.000000, 1.190476)">
                                <mask id="mask-4" fill="white">
                                    <use xlink:href="#path-3"></use>
                                </mask>
                                <g id="Clip-24"></g>
                                <path d="M0.417380952,0.0885714286 C0.187619048,0.0885714286 -0.000476190476,0.27547619 -0.000476190476,0.505238095 L-0.000476190476,10.5207143 C0.142380952,10.7492857 0.961428571,11.2004762 2.19238095,11.4254762 C2.38166667,11.46 2.60666667,11.4945238 2.85904762,11.5278571 C4.16619048,11.7004762 6.26857143,11.8504762 8.6352381,11.8504762 L8.6352381,4.14452381 C5.96380952,0.704047619 1.83047619,0.0885714286 0.417380952,0.0885714286" id="Fill-23" fill="#C626B6" mask="url(#mask-4)"></path>
                            </g>
                        </g>
                    </g>
                    <text id="PART-OF-THE" opacity="0.8" font-family="Brown-Regular, Brown" font-size="10" font-weight="normal" letter-spacing="0.275" fill="#FFFFFF">
                        <tspan x="0" y="17">PART OF THE</tspan>
                    </text>
                    <text id="FAMILY" opacity="0.8" font-family="Brown-Regular, Brown" font-size="10" font-weight="normal" letter-spacing="0.275" fill="#FFFFFF">
                        <tspan x="193" y="17">FAMILY</tspan>
                    </text>
                </g>
            </g>
        </g>
    </g>
</svg>